<svg xmlns="http://www.w3.org/2000/svg" viewBox="0 0 1440 320"><path fill="#0099ff" fill-opacity="1" d="M0,96L8.9,112C17.8,128,36,160,53,181.3C71.1,203,89,213,107,208C124.4,203,142,181,160,192C177.8,203,196,245,213,256C231.1,267,249,245,267,202.7C284.4,160,302,96,320,85.3C337.8,75,356,117,373,144C391.1,171,409,181,427,165.3C444.4,149,462,107,480,90.7C497.8,75,516,85,533,117.3C551.1,149,569,203,587,224C604.4,245,622,235,640,245.3C657.8,256,676,288,693,288C711.1,288,729,256,747,213.3C764.4,171,782,117,800,112C817.8,107,836,149,853,165.3C871.1,181,889,171,907,149.3C924.4,128,942,96,960,80C977.8,64,996,64,1013,106.7C1031.1,149,1049,235,1067,229.3C1084.4,224,1102,128,1120,117.3C1137.8,107,1156,181,1173,192C1191.1,203,1209,149,1227,149.3C1244.4,149,1262,203,1280,234.7C1297.8,267,1316,277,1333,266.7C1351.1,256,1369,224,1387,192C1404.4,160,1422,128,1431,112L1440,96L1440,320L1431.1,320C1422.2,320,1404,320,1387,320C1368.9,320,1351,320,1333,320C1315.6,320,1298,320,1280,320C1262.2,320,1244,320,1227,320C1208.9,320,1191,320,1173,320C1155.6,320,1138,320,1120,320C1102.2,320,1084,320,1067,320C1048.9,320,1031,320,1013,320C995.6,320,978,320,960,320C942.2,320,924,320,907,320C888.9,320,871,320,853,320C835.6,320,818,320,800,320C782.2,320,764,320,747,320C728.9,320,711,320,693,320C675.6,320,658,320,640,320C622.2,320,604,320,587,320C568.9,320,551,320,533,320C515.6,320,498,320,480,320C462.2,320,444,320,427,320C408.9,320,391,320,373,320C355.6,320,338,320,320,320C302.2,320,284,320,267,320C248.9,320,231,320,213,320C195.6,320,178,320,160,320C142.2,320,124,320,107,320C88.9,320,71,320,53,320C35.6,320,18,320,9,320L0,320Z"></path></svg>